<?xml version="1.0" encoding="UTF-8"?>
<svg version="1.1" xmlns="http://www.w3.org/2000/svg" width="445" height="179">
<path d="M0 0 C1.23518372 -0.00960754 2.47036743 -0.01921509 3.74298096 -0.02911377 C5.08874323 -0.03396296 6.43450766 -0.03824149 7.78027344 -0.04199219 C9.16786702 -0.04774984 10.55546061 -0.05350749 11.9430542 -0.05926514 C14.85152556 -0.0697585 17.75996942 -0.07561166 20.66845703 -0.07910156 C24.37823489 -0.08457486 28.08764363 -0.10858454 31.79730606 -0.13707352 C34.66452055 -0.15578724 37.53164778 -0.16091017 40.39891815 -0.16243744 C41.7655412 -0.16544617 43.13216337 -0.17341393 44.49872589 -0.18662262 C53.35347772 -0.26608253 60.03134064 0.0694824 67.63964844 4.91113281 C72.55941941 9.83090378 74.73124443 15.21863982 75.00990295 22.15412903 C75.00768234 23.2622142 75.00546173 24.37029938 75.00317383 25.51196289 C75.00306053 27.40335747 75.00306053 27.40335747 75.00294495 29.33296204 C74.99783912 30.69886312 74.99262314 32.06476379 74.98730469 33.43066406 C74.98543814 34.83599294 74.98401535 36.24132246 74.98301697 37.64665222 C74.97921044 41.33407406 74.96939618 45.02145612 74.95831299 48.7088623 C74.94805869 52.47615013 74.94351075 56.24344441 74.93847656 60.01074219 C74.92777214 67.39422381 74.91071824 74.77767272 74.88964844 82.16113281 C82.27692946 82.18639974 89.66419942 82.20396442 97.05151367 82.21606445 C99.56681739 82.22110645 102.08211815 82.22793984 104.59741211 82.23657227 C108.20394619 82.24864375 111.81044166 82.2543623 115.41699219 82.25878906 C116.54926743 82.26395035 117.68154266 82.26911163 118.84812927 82.27442932 C119.88913284 82.27450485 120.93013641 82.27458038 122.00268555 82.2746582 C122.92423935 82.27687881 123.84579315 82.27909943 124.79527283 82.28138733 C126.87773206 82.39485262 126.87773206 82.39485262 127.88964844 81.16113281 C127.99756799 79.20954987 128.03593167 77.25409167 128.04736328 75.29956055 C128.05762543 74.04412949 128.06788757 72.78869843 128.07846069 71.495224 C128.08189861 70.81943739 128.08533653 70.14365078 128.08887863 69.44738579 C128.10065623 67.33210212 128.12011037 65.2170237 128.14199829 63.1018219 C128.20362021 57.08577403 128.25748117 51.06974174 128.29101562 45.0534668 C128.31206843 41.37573969 128.34746646 37.69837784 128.39177322 34.02086067 C128.40586242 32.62360018 128.41463955 31.22627495 128.41782761 29.82894707 C128.4591371 13.44181435 128.4591371 13.44181435 133.68652344 6.91894531 C134.33105469 6.38011719 134.97558594 5.84128906 135.63964844 5.28613281 C136.59097656 4.4546875 136.59097656 4.4546875 137.56152344 3.60644531 C144.7669266 -0.86670766 152.87607612 -0.14532191 161.07324219 -0.13964844 C162.45654935 -0.14354227 163.83985532 -0.14787835 165.22315979 -0.15263367 C168.11373786 -0.16006792 171.00419373 -0.15982487 173.89477539 -0.15454102 C177.58095969 -0.14874769 181.26664131 -0.16568718 184.95274258 -0.18888569 C187.80710221 -0.20368672 190.6613425 -0.20448617 193.51573372 -0.20137596 C195.52967165 -0.20213208 197.54359119 -0.21595011 199.55747986 -0.23005676 C208.05328251 -0.18731532 213.92345136 0.56785011 221.13964844 5.28613281 C228.54561035 13.02872935 228.48036522 21.75491218 228.46386719 32.00488281 C228.47633202 33.42453723 228.49067166 34.84417631 228.50679016 36.26379395 C228.54456978 39.97216039 228.55996469 43.68026046 228.56958008 47.38879395 C228.58944037 53.35168545 228.64606145 59.31437688 228.69834328 65.27705383 C228.71370819 67.35834523 228.72088003 69.43953588 228.72648621 71.52087402 C228.73703789 73.39917908 228.73703789 73.39917908 228.74780273 75.31542969 C228.7512822 76.42301636 228.75476166 77.53060303 228.75834656 78.67175293 C228.60827921 81.10272385 228.60827921 81.10272385 229.88964844 82.16113281 C231.48028154 82.25967704 233.07526321 82.28911975 234.66894531 82.29052734 C235.68670044 82.2936795 236.70445557 82.29683167 237.75305176 82.30007935 C238.86031616 82.29805511 239.96758057 82.29603088 241.10839844 82.29394531 C242.80071594 82.2953804 242.80071594 82.2953804 244.52722168 82.29684448 C246.9180507 82.29752649 249.30888155 82.29567078 251.69970703 82.29150391 C255.37373995 82.28615597 259.0476506 82.29144824 262.72167969 82.29785156 C265.03808621 82.29719078 267.35449265 82.29590963 269.67089844 82.29394531 C271.33179504 82.29698166 271.33179504 82.29698166 273.02624512 82.30007935 C274.04400024 82.29692719 275.06175537 82.29377502 276.11035156 82.29052734 C277.01112427 82.28973175 277.91189697 82.28893616 278.83996582 82.28811646 C280.88287913 82.38857887 280.88287913 82.38857887 281.88964844 81.16113281 C281.99735989 79.30030618 282.03591581 77.43543945 282.04736328 75.5715332 C282.05762543 74.376819 282.06788757 73.1821048 282.07846069 71.95118713 C282.08576202 70.65019577 282.09306335 69.34920441 282.10058594 68.00878906 C282.1135401 66.66978623 282.1273551 65.33079146 282.14199829 63.99180603 C282.2037276 58.29189289 282.25770585 52.59200126 282.29101562 46.8918457 C282.31192186 43.40864597 282.34719166 39.92584283 282.39177322 36.44286919 C282.41288258 34.46533984 282.41799073 32.48766084 282.42294312 30.51002502 C282.43950958 29.31215866 282.45607605 28.1142923 282.47314453 26.88012695 C282.48527481 25.29247276 282.48527481 25.29247276 282.49765015 23.67274475 C282.62700958 22.84391281 282.75636902 22.01508087 282.88964844 21.16113281 C285.96933906 19.10800573 286.60933548 18.91115527 290.08496094 18.93066406 C290.88289063 18.93259766 291.68082031 18.93453125 292.50292969 18.93652344 C293.33179688 18.94876953 294.16066406 18.96101563 295.01464844 18.97363281 C295.85125 18.97427734 296.68785156 18.97492187 297.54980469 18.97558594 C303.7493168 19.02080118 303.7493168 19.02080118 304.88964844 20.16113281 C305.00790883 22.05758735 305.05702905 23.9583884 305.07910156 25.85839844 C305.09581909 27.07636108 305.11253662 28.29432373 305.12976074 29.54919434 C305.13644272 30.20393234 305.14312469 30.85867035 305.15000916 31.5332489 C305.1709786 33.57518925 305.19800505 35.61696783 305.22668457 37.65881348 C305.29663935 42.73028583 305.35596554 47.80187312 305.41571045 52.87347412 C305.4665666 57.15641557 305.52137171 61.43927045 305.58152771 65.72209167 C305.60818927 67.73905903 305.62895111 69.75603405 305.64953613 71.77307129 C305.66625366 72.99103394 305.68297119 74.20899658 305.70019531 75.46386719 C305.71898743 77.08149963 305.71898743 77.08149963 305.73815918 78.73181152 C305.61746365 81.10952376 305.61746365 81.10952376 306.88964844 82.16113281 C308.44963892 82.25960248 310.01405388 82.28911899 311.57714844 82.29052734 C312.57488281 82.2936795 313.57261719 82.29683167 314.60058594 82.30007935 C315.68597656 82.29805511 316.77136719 82.29603088 317.88964844 82.29394531 C318.99566406 82.29490204 320.10167969 82.29585876 321.24121094 82.29684448 C323.58496151 82.29752648 325.92871397 82.29567085 328.27246094 82.29150391 C331.87406631 82.28615595 335.47554697 82.29144828 339.07714844 82.29785156 C341.34798205 82.29719078 343.61881558 82.29590963 345.88964844 82.29394531 C346.97503906 82.29596954 348.06042969 82.29799377 349.17871094 82.30007935 C350.17644531 82.29692719 351.17417969 82.29377502 352.20214844 82.29052734 C353.52666016 82.28933395 353.52666016 82.28933395 354.87792969 82.28811646 C356.88732736 82.38383955 356.88732736 82.38383955 357.88964844 81.16113281 C357.98335468 79.38121357 358.00709115 77.59756542 358.00317383 75.81518555 C358.00306053 74.10352455 358.00306053 74.10352455 358.00294495 72.35728455 C357.99778366 71.11564041 357.99262238 69.87399628 357.98730469 68.59472656 C357.98588974 67.33096695 357.98447479 66.06720734 357.98301697 64.76515198 C357.97835426 61.39988392 357.96936324 58.03468291 357.95831299 54.66943359 C357.9480969 51.23763612 357.94351892 47.80583173 357.93847656 44.37402344 C357.92742224 37.63637457 357.91066554 30.89875756 357.88964844 24.16113281 C355.90964844 23.17113281 353.92964844 22.18113281 351.88964844 21.16113281 C351.86076697 17.84865094 351.84289045 14.53620114 351.82714844 11.22363281 C351.81876953 10.27810547 351.81039063 9.33257812 351.80175781 8.35839844 C351.79692383 7.0097168 351.79692383 7.0097168 351.79199219 5.63378906 C351.78413696 4.38480835 351.78413696 4.38480835 351.77612305 3.1105957 C351.88964844 1.16113281 351.88964844 1.16113281 352.88964844 0.16113281 C361.1388831 -0.67504692 367.30617552 0.74917989 374.13964844 5.34863281 C381.97187231 13.35886177 381.46990088 21.90880845 381.38574219 32.44628906 C381.3858974 34.03234422 381.38738999 35.61839975 381.39015198 37.20445251 C381.39153135 40.51708895 381.3790546 43.82928998 381.35620117 47.1418457 C381.32779435 51.37405559 381.33056623 55.60554419 381.34329128 59.83780766 C381.35026684 63.10906568 381.34243825 66.38015884 381.33003426 69.6513958 C381.3255396 71.21140344 381.32516548 72.77142891 381.32909966 74.33143806 C381.33203109 76.51600182 381.31541573 78.69959286 381.29370117 80.8840332 C381.28829819 82.12343155 381.2828952 83.3628299 381.27732849 84.63978577 C380.57052977 91.05972809 377.82882055 96.85914851 372.88964844 101.16113281 C365.52080542 105.97832206 357.73560244 105.71819163 349.22167969 105.62207031 C347.81402252 105.61968054 346.40636211 105.61878169 344.998703 105.61929321 C342.06444002 105.61618291 339.13067179 105.59975132 336.1965332 105.57275391 C332.44749423 105.53868193 328.69899434 105.53112912 324.94981861 105.53264427 C322.04919857 105.53209906 319.14869485 105.52110924 316.24811363 105.50664139 C314.86591151 105.50030842 313.48369632 105.49634275 312.10148048 105.49485397 C310.1685978 105.49048899 308.23576573 105.47136082 306.30297852 105.45166016 C305.2064949 105.44403656 304.11001129 105.43641296 302.9803009 105.42855835 C299.88964844 105.16113281 299.88964844 105.16113281 296.86381531 104.01797485 C293.1080914 102.93597028 291.49336477 103.8059157 287.88964844 105.16113281 C284.74084473 105.4151001 284.74084473 105.4151001 281.33691406 105.41992188 C280.05538452 105.4262262 278.77385498 105.43253052 277.45349121 105.43902588 C276.06762554 105.43544575 274.68176114 105.4313437 273.29589844 105.42675781 C271.86153091 105.42810668 270.42716382 105.43004907 268.99279785 105.43255615 C265.99368923 105.43549697 262.99470014 105.43124345 259.99560547 105.421875 C256.16244236 105.41048101 252.3295594 105.41704608 248.49640656 105.42901993 C245.53662019 105.43626676 242.57689961 105.43393767 239.61711121 105.42876434 C238.20419786 105.42743565 236.79127843 105.42904807 235.37837219 105.43372345 C233.39971032 105.43883496 231.42102735 105.42965556 229.44238281 105.41992188 C228.31908569 105.41833069 227.19578857 105.4167395 226.03845215 105.4151001 C222.88964844 105.16113281 222.88964844 105.16113281 219.85510254 104.0199585 C216.10475101 102.93381853 214.48958873 103.80733572 210.88964844 105.16113281 C207.74084473 105.4151001 207.74084473 105.4151001 204.33691406 105.41992188 C203.05538452 105.4262262 201.77385498 105.43253052 200.45349121 105.43902588 C199.06762554 105.43544575 197.68176114 105.4313437 196.29589844 105.42675781 C194.86153091 105.42810668 193.42716382 105.43004907 191.99279785 105.43255615 C188.99368923 105.43549697 185.99470014 105.43124345 182.99560547 105.421875 C179.16244236 105.41048101 175.3295594 105.41704608 171.49640656 105.42901993 C168.53662019 105.43626676 165.57689961 105.43393767 162.61711121 105.42876434 C161.20419786 105.42743565 159.79127843 105.42904807 158.37837219 105.43372345 C156.39971032 105.43883496 154.42102735 105.42965556 152.44238281 105.41992188 C151.31908569 105.41833069 150.19578857 105.4167395 149.03845215 105.4151001 C145.88964844 105.16113281 145.88964844 105.16113281 142.85510254 104.0199585 C139.10566204 102.93408237 137.48626064 103.80233486 133.88964844 105.16113281 C130.79899597 105.42855835 130.79899597 105.42855835 127.47631836 105.45166016 C126.22449265 105.46441986 124.97266693 105.47717957 123.6829071 105.49032593 C122.32864539 105.49338422 120.97438157 105.49561164 119.62011719 105.49707031 C118.21535611 105.50350665 116.81059636 105.51023561 115.40583801 105.51724243 C112.46640926 105.52918733 109.52709778 105.5329262 106.58764648 105.53173828 C102.84200039 105.53153537 99.09711537 105.55882015 95.35164928 105.5932827 C92.45091883 105.61564639 89.55036872 105.61957294 86.64956093 105.61851883 C85.26980279 105.62086124 83.89003864 105.62960721 82.51036644 105.64518356 C73.80233225 105.7342869 65.68730581 105.65026004 59.01921082 99.41098022 C54.26692834 94.29392065 52.64992342 89.64205563 52.58666992 82.64257812 C52.57002792 81.34483459 52.55338593 80.04709106 52.53623962 78.71002197 C52.52768087 77.30310095 52.51918316 75.89617955 52.51074219 74.48925781 C52.49455976 73.04147223 52.47737898 71.5936975 52.45924377 70.14593506 C52.41366617 66.34553017 52.37879613 62.54511073 52.3470459 58.74456787 C52.29505389 52.64730888 52.23016864 46.55020819 52.15883064 40.45314789 C52.13594797 38.32093232 52.1197144 36.18873722 52.10411072 34.05645752 C52.09062088 32.77132263 52.07713104 31.48618774 52.06323242 30.16210938 C52.05372055 29.02469299 52.04420868 27.88727661 52.03440857 26.71539307 C52.17781715 24.22731368 52.17781715 24.22731368 50.88964844 23.16113281 C49.26290066 23.06772847 47.63210792 23.0436811 46.00268555 23.04760742 C44.44118019 23.04772072 44.44118019 23.04772072 42.84812927 23.0478363 C41.14971642 23.05557823 41.14971642 23.05557823 39.41699219 23.06347656 C38.2642128 23.06489151 37.11143341 23.06630646 35.92372131 23.06776428 C32.2248378 23.07338276 28.5260138 23.0859384 24.82714844 23.09863281 C22.32649827 23.10364543 19.82584715 23.10820875 17.32519531 23.11230469 C11.17999256 23.12335819 5.03482475 23.14011429 -1.11035156 23.16113281 C-1.13540771 23.91322021 -1.16046387 24.66530762 -1.1862793 25.44018555 C-1.3018567 28.82652477 -1.42475501 32.21255894 -1.54785156 35.59863281 C-1.58716797 36.78263672 -1.62648438 37.96664062 -1.66699219 39.18652344 C-1.70888672 40.31123047 -1.75078125 41.4359375 -1.79394531 42.59472656 C-1.83060303 43.63685303 -1.86726074 44.67897949 -1.9050293 45.75268555 C-2.11035156 48.16113281 -2.11035156 48.16113281 -3.11035156 49.16113281 C-4.51383892 49.25973412 -5.92215633 49.29192218 -7.32910156 49.29394531 C-8.60333984 49.29587891 -8.60333984 49.29587891 -9.90332031 49.29785156 C-11.24330078 49.29205078 -11.24330078 49.29205078 -12.61035156 49.28613281 C-13.50367188 49.29 -14.39699219 49.29386719 -15.31738281 49.29785156 C-16.166875 49.2965625 -17.01636719 49.29527344 -17.89160156 49.29394531 C-18.67599609 49.29281738 -19.46039062 49.29168945 -20.26855469 49.29052734 C-22.11035156 49.16113281 -22.11035156 49.16113281 -23.11035156 48.16113281 C-23.24855742 45.80629565 -23.32345784 43.48289987 -23.34863281 41.12597656 C-23.35670456 40.41389542 -23.36477631 39.70181427 -23.37309265 38.96815491 C-23.38695541 37.45413662 -23.39766772 35.94008679 -23.40551758 34.42602539 C-23.42260287 32.13202374 -23.46644864 29.83951216 -23.51074219 27.54589844 C-23.66342841 13.5149948 -23.66342841 13.5149948 -19.11035156 7.16113281 C-16.89160156 5.10253906 -16.89160156 5.10253906 -14.61035156 3.72363281 C-13.85753906 3.25054688 -13.10472656 2.77746094 -12.32910156 2.29003906 C-8.22607038 0.20240524 -4.57552853 0.02876303 0 0 Z M150.88964844 24.16113281 C150.58285844 26.65467759 150.58285844 26.65467759 150.63085938 29.58886719 C150.62455505 30.7234436 150.61825073 31.85802002 150.61175537 33.02697754 C150.61580383 34.25718628 150.61985229 35.48739502 150.62402344 36.75488281 C150.62210999 38.01248413 150.62019653 39.27008545 150.6182251 40.5657959 C150.61686195 43.22906156 150.61956838 45.89196211 150.62890625 48.55517578 C150.64030092 51.97184675 150.63374096 55.38820354 150.62176132 58.80486298 C150.6128039 62.05904761 150.61907216 65.31319409 150.62402344 68.56738281 C150.61997498 69.79759155 150.61592651 71.02780029 150.61175537 72.29528809 C150.61805969 73.4298645 150.62436401 74.56444092 150.63085938 75.73339844 C150.63245056 76.73552368 150.63404175 77.73764893 150.63568115 78.7701416 C150.65607405 81.34653422 150.65607405 81.34653422 152.88964844 83.16113281 C155.13905249 83.46719331 155.13905249 83.46719331 157.76660156 83.41992188 C158.78105347 83.4262262 159.79550537 83.43253052 160.84069824 83.43902588 C161.93966431 83.43497742 163.03863037 83.43092896 164.17089844 83.42675781 C165.85753601 83.42962799 165.85753601 83.42962799 167.57824707 83.43255615 C169.95890527 83.43391898 172.33957087 83.43021576 174.72021484 83.421875 C178.37451797 83.41117711 182.02832944 83.42176726 185.68261719 83.43457031 C187.99121203 83.43324874 190.29980656 83.43068638 192.60839844 83.42675781 C194.25684753 83.43283051 194.25684753 83.43283051 195.93859863 83.43902588 C197.46027649 83.4295694 197.46027649 83.4295694 199.01269531 83.41992188 C199.9082312 83.41833069 200.80376709 83.4167395 201.72644043 83.4151001 C204.10114991 83.36285344 204.10114991 83.36285344 205.88964844 81.16113281 C206.18270555 78.61209988 206.18270555 78.61209988 206.11669922 75.60986328 C206.11647263 73.86828445 206.11647263 73.86828445 206.11624146 72.09152222 C206.10591888 70.83316559 206.09559631 69.57480896 206.08496094 68.27832031 C206.08071609 66.35150925 206.08071609 66.35150925 206.0763855 64.38577271 C206.06874653 60.96950514 206.04909596 57.55340745 206.02697754 54.13720703 C206.00652468 50.65171608 205.99738499 47.16619771 205.98730469 43.68066406 C205.96585018 36.8407505 205.93171115 30.00094981 205.88964844 23.16113281 C203.42027393 21.92644556 201.77437685 22.02762408 199.01269531 22.01586914 C197.99824341 22.00948929 196.9837915 22.00310944 195.93859863 21.99653625 C194.83963257 21.99542343 193.7406665 21.99431061 192.60839844 21.99316406 C190.92176086 21.98817146 190.92176086 21.98817146 189.2010498 21.983078 C186.82039805 21.9780087 184.43973918 21.97566968 182.05908203 21.97583008 C178.4048298 21.9736419 174.75087852 21.95548135 171.09667969 21.93652344 C168.78808698 21.93358994 166.47949282 21.93160485 164.17089844 21.93066406 C163.07193237 21.92347855 161.97296631 21.91629303 160.84069824 21.90888977 C159.82624634 21.9119664 158.81179443 21.91504303 157.76660156 21.91821289 C156.87106567 21.91678787 155.97552979 21.91536285 155.05285645 21.91389465 C152.67788919 21.95806607 152.67788919 21.95806607 150.88964844 24.16113281 Z " fill="#010101" transform="translate(44.1103515625,14.8388671875)"/>
<path d="M0 0 C1.27423828 -0.00193359 1.27423828 -0.00193359 2.57421875 -0.00390625 C3.91419922 0.00189453 3.91419922 0.00189453 5.28125 0.0078125 C6.17457031 0.00394531 7.06789063 0.00007813 7.98828125 -0.00390625 C8.83777344 -0.00261719 9.68726563 -0.00132813 10.5625 0 C11.34689453 0.00112793 12.13128906 0.00225586 12.93945312 0.00341797 C14.78125 0.1328125 14.78125 0.1328125 15.78125 1.1328125 C15.93911308 2.98455956 16.03232356 4.8419036 16.09765625 6.69921875 C16.13955078 7.82392578 16.18144531 8.94863281 16.22460938 10.10742188 C16.26392578 11.29142578 16.30324219 12.47542969 16.34375 13.6953125 C16.38693359 14.88318359 16.43011719 16.07105469 16.47460938 17.29492188 C16.58108546 20.24076034 16.68309841 23.1866868 16.78125 26.1328125 C19.09125 26.7928125 21.40125 27.4528125 23.78125 28.1328125 C23.81013146 31.44529437 23.82800799 34.75774417 23.84375 38.0703125 C23.85212891 39.01583984 23.86050781 39.96136719 23.86914062 40.93554688 C23.87397461 42.28422852 23.87397461 42.28422852 23.87890625 43.66015625 C23.88676147 44.90913696 23.88676147 44.90913696 23.89477539 46.18334961 C23.78125 48.1328125 23.78125 48.1328125 22.78125 49.1328125 C15.43640537 49.93287593 8.98485045 49.33073761 2.78125 45.1328125 C-1.06823209 41.60170863 -4.26287567 38.3682227 -5.21875 33.1328125 C-5.31267668 30.68238941 -5.34945643 28.22956541 -5.3515625 25.77734375 C-5.35299759 24.72398079 -5.35299759 24.72398079 -5.35446167 23.64933777 C-5.3551402 22.17092804 -5.35330875 20.69251528 -5.34912109 19.21411133 C-5.34374406 16.94280392 -5.34908938 14.6716921 -5.35546875 12.40039062 C-5.35480838 10.96354123 -5.35352808 9.52669195 -5.3515625 8.08984375 C-5.35043457 6.77991455 -5.34930664 5.46998535 -5.34814453 4.12036133 C-5.1524265 -0.39850946 -4.11081619 0.0059112 0 0 Z " fill="#7BADDC" transform="translate(26.21875,70.8671875)"/>
<path d="M0 0 C1.27423828 -0.00193359 1.27423828 -0.00193359 2.57421875 -0.00390625 C3.91419922 0.00189453 3.91419922 0.00189453 5.28125 0.0078125 C6.17457031 0.00394531 7.06789063 0.00007813 7.98828125 -0.00390625 C8.83777344 -0.00261719 9.68726563 -0.00132813 10.5625 0 C11.34689453 0.00112793 12.13128906 0.00225586 12.93945312 0.00341797 C14.78125 0.1328125 14.78125 0.1328125 15.78125 1.1328125 C15.93911308 2.98455956 16.03232356 4.8419036 16.09765625 6.69921875 C16.13955078 7.82392578 16.18144531 8.94863281 16.22460938 10.10742188 C16.26392578 11.29142578 16.30324219 12.47542969 16.34375 13.6953125 C16.38693359 14.88318359 16.43011719 16.07105469 16.47460938 17.29492188 C16.58108546 20.24076034 16.68309841 23.1866868 16.78125 26.1328125 C19.09125 26.7928125 21.40125 27.4528125 23.78125 28.1328125 C23.81013146 31.44529437 23.82800799 34.75774417 23.84375 38.0703125 C23.85212891 39.01583984 23.86050781 39.96136719 23.86914062 40.93554688 C23.87397461 42.28422852 23.87397461 42.28422852 23.87890625 43.66015625 C23.88676147 44.90913696 23.88676147 44.90913696 23.89477539 46.18334961 C23.78125 48.1328125 23.78125 48.1328125 22.78125 49.1328125 C15.18244153 49.96053985 9.43833157 48.81475391 2.78125 45.1328125 C6.515625 44.0234375 6.515625 44.0234375 8.90625 45.0078125 C13.13937134 46.66425128 17.2565354 46.77083533 21.78125 47.1328125 C21.45125 41.1928125 21.12125 35.2528125 20.78125 29.1328125 C18.80125 28.4728125 16.82125 27.8128125 14.78125 27.1328125 C13.8511611 24.3425458 13.59426231 22.36751708 13.46484375 19.46484375 C13.42294922 18.57216797 13.38105469 17.67949219 13.33789062 16.75976562 C13.29857422 15.83099609 13.25925781 14.90222656 13.21875 13.9453125 C13.17556641 13.00494141 13.13238281 12.06457031 13.08789062 11.09570312 C12.98186335 8.77488396 12.87979971 6.45395925 12.78125 4.1328125 C5.75342958 3.0937408 5.75342958 3.0937408 -1.21875 4.1328125 C-3.16297547 14.89548923 -4.18706225 25.30709513 -2.21875 36.1328125 C-2.87875 36.1328125 -3.53875 36.1328125 -4.21875 36.1328125 C-5.41287346 32.55044213 -5.34832863 29.65539793 -5.3515625 25.875 C-5.35251923 25.17134308 -5.35347595 24.46768616 -5.35446167 23.7427063 C-5.35514125 22.25832021 -5.35330245 20.77393113 -5.34912109 19.28955078 C-5.34375367 17.00937292 -5.34908171 14.72939061 -5.35546875 12.44921875 C-5.35480824 11.00781206 -5.35352765 9.5664055 -5.3515625 8.125 C-5.35043457 6.80870605 -5.34930664 5.49241211 -5.34814453 4.13623047 C-5.15290842 -0.39545748 -4.123231 0.00592905 0 0 Z " fill="#7692AE" transform="translate(26.21875,70.8671875)"/>
<path d="M0 0 C3.375 0.6875 3.375 0.6875 4.375 1.6875 C4.75 4.5625 4.75 4.5625 4.375 7.6875 C1.875 9.5625 1.875 9.5625 -0.625 10.6875 C0.014375 10.873125 0.65375 11.05875 1.3125 11.25 C3.375 12.6875 3.375 12.6875 4.25 16.1875 C4.311875 17.92 4.311875 17.92 4.375 19.6875 C2.375 21.6875 2.375 21.6875 -1.125 21.9375 C-4.625 21.6875 -4.625 21.6875 -6.625 19.6875 C-7.06793542 16.70782424 -6.94914428 13.69638134 -6.9375 10.6875 C-6.95361328 9.85476562 -6.96972656 9.02203125 -6.98632812 8.1640625 C-6.98697266 7.36742187 -6.98761719 6.57078125 -6.98828125 5.75 C-6.99126221 5.01910156 -6.99424316 4.28820312 -6.99731445 3.53515625 C-6.18781223 -0.48209807 -3.49847148 -0.30159237 0 0 Z M-1.625 15.6875 C-0.625 17.6875 -0.625 17.6875 -0.625 17.6875 Z " fill="#030303" transform="translate(306.625,150.3125)"/>
<path d="M0 0 C3.34268567 0.48747499 4.01701923 0.81651672 6 3.4375 C6.73349961 6.84344003 6.71458942 10.02772684 6 13.4375 C3.125 15.75 3.125 15.75 0 17.4375 C-1.41190564 20.04187233 -1.41190564 20.04187233 -2 22.4375 C-3.32 21.7775 -4.64 21.1175 -6 20.4375 C-6.08112454 17.85353321 -6.14054748 15.27212432 -6.1875 12.6875 C-6.21263672 11.95789063 -6.23777344 11.22828125 -6.26367188 10.4765625 C-6.30813932 7.21561645 -6.22285932 4.85626516 -4.67578125 1.94921875 C-3 0.4375 -3 0.4375 0 0 Z M0 4.4375 C-1.41577477 5.62174326 -1.41577477 5.62174326 -1.0625 9 C-1.041875 10.134375 -1.02125 11.26875 -1 12.4375 C-0.34 12.1075 0.32 11.7775 1 11.4375 C1 9.1275 1 6.8175 1 4.4375 C0.67 4.4375 0.34 4.4375 0 4.4375 Z " fill="#040404" transform="translate(353,149.5625)"/>
<path d="M0 0 C2.0625 0.4375 2.0625 0.4375 4 1 C4.061875 1.86625 4.061875 1.86625 4.125 2.75 C4.84465427 5.35272328 4.84465427 5.35272328 8.0625 6.5 C11 9 11 9 11.39453125 11.921875 C11.37665811 14.96745797 11.25762252 17.96577925 11 21 C10.01 21.33 9.02 21.66 8 22 C4.84228577 18.84228577 5.37493227 15.37420978 5 11 C4.67 14.3 4.34 17.6 4 21 C3.01 21.33 2.02 21.66 1 22 C-1 20 -1 20 -1.24291992 18.04467773 C-1.23881104 17.26552002 -1.23470215 16.4863623 -1.23046875 15.68359375 C-1.22853516 14.83732422 -1.22660156 13.99105469 -1.22460938 13.11914062 C-1.21236328 12.23419922 -1.20011719 11.34925781 -1.1875 10.4375 C-1.18685547 9.54869141 -1.18621094 8.65988281 -1.18554688 7.74414062 C-1.14021097 1.14021097 -1.14021097 1.14021097 0 0 Z " fill="#020202" transform="translate(71,145)"/>
<path d="M0 0 C1.6484375 1.12890625 1.6484375 1.12890625 3 3 C3.29296875 5.91796875 3.29296875 5.91796875 3.1875 9.1875 C3.16042969 10.27417969 3.13335937 11.36085937 3.10546875 12.48046875 C3.07066406 13.31191406 3.03585938 14.14335937 3 15 C-0.74620647 17.12095421 -2.79066042 17.02894968 -7 16 C-8 15 -8 15 -8.0625 11.5625 C-8.041875 10.386875 -8.02125 9.21125 -8 8 C-8 7.34 -8 6.68 -8 6 C-7.625 3.4375 -7.625 3.4375 -7 1 C-4.45132831 -0.27433584 -2.82594567 -0.27570202 0 0 Z " fill="#040404" transform="translate(31,150)"/>
<path d="M0 0 C1.32 0 2.64 0 4 0 C4.061875 0.78375 4.12375 1.5675 4.1875 2.375 C4.455625 3.24125 4.72375 4.1075 5 5 C7.45704762 6.23290201 7.45704762 6.23290201 10 7 C11.38226016 9.76452033 11.09525387 12.0461363 11.0625 15.125 C11.05347656 16.22070312 11.04445313 17.31640625 11.03515625 18.4453125 C11.02355469 19.28835937 11.01195312 20.13140625 11 21 C9.68 21 8.36 21 7 21 C5.71682108 17.15046324 5.93356363 14.05261865 6 10 C5.34 10 4.68 10 4 10 C4 13.63 4 17.26 4 21 C2.68 21 1.36 21 0 21 C-0.19461488 18.06281233 -0.38097593 15.12550068 -0.5625 12.1875 C-0.61857422 11.35412109 -0.67464844 10.52074219 -0.73242188 9.66210938 C-0.78076172 8.85966797 -0.82910156 8.05722656 -0.87890625 7.23046875 C-0.9260376 6.49207764 -0.97316895 5.75368652 -1.02172852 4.99291992 C-1 3 -1 3 0 0 Z " fill="#030303" transform="translate(365,145)"/>
<path d="M0 0 C3 0.5 3 0.5 5.0625 2.625 C6 5.5 6 5.5 4.6875 8.8125 C4.130625 9.699375 3.57375 10.58625 3 11.5 C3.66 11.5 4.32 11.5 5 11.5 C4.67 13.15 4.34 14.8 4 16.5 C-1.35270192 17.83817548 -1.35270192 17.83817548 -4.17578125 16.36328125 C-6 14.5 -6 14.5 -6.49609375 11.90625 C-6.47675781 10.9471875 -6.45742187 9.988125 -6.4375 9 C-6.43621094 8.0409375 -6.43492188 7.081875 -6.43359375 6.09375 C-5.72445742 1.85170924 -4.16165869 0.69360978 0 0 Z M-1 10.5 C-1 11.16 -1 11.82 -1 12.5 C-0.34 12.5 0.32 12.5 1 12.5 C1 11.84 1 11.18 1 10.5 C0.34 10.5 -0.32 10.5 -1 10.5 Z " fill="#020202" transform="translate(118,149.5)"/>
<path d="M0 0 C1.87725894 1.87725894 1.21702304 4.92850307 1.25 7.4375 C1.28867188 9.19900391 1.28867188 9.19900391 1.328125 10.99609375 C1.21984375 11.98738281 1.1115625 12.97867188 1 14 C-2.23253796 16.15502531 -3.25150923 16.46856135 -7 16 C-8.8125 14.8125 -8.8125 14.8125 -10 13 C-10.3125 10.4375 -10.3125 10.4375 -10 8 C-9.34 7.34 -8.68 6.68 -8 6 C-8.66 5.67 -9.32 5.34 -10 5 C-9.625 2.5625 -9.625 2.5625 -9 0 C-5.90842747 -1.54578627 -3.31526981 -0.60277633 0 0 Z " fill="#040404" transform="translate(244,151)"/>
<path d="M0 0 C3 0.4375 3 0.4375 4.9375 1.5625 C6.52513015 4.36420027 5.74070176 6.40735644 5 9.4375 C3.02 9.7675 1.04 10.0975 -1 10.4375 C-1 11.0975 -1 11.7575 -1 12.4375 C0.98 12.1075 2.96 11.7775 5 11.4375 C5 12.7575 5 14.0775 5 15.4375 C2 17.4375 2 17.4375 -1.0625 17.25 C-4 16.4375 -4 16.4375 -6 13.4375 C-6.57597403 9.37576104 -6.53099197 5.6469817 -4.875 1.875 C-3 0.4375 -3 0.4375 0 0 Z " fill="#020202" transform="translate(196,149.5625)"/>
<path d="M0 0 C2.78779879 2.78779879 2.29961733 4.61802327 2.3125 8.5 C2.32925781 9.6653125 2.34601563 10.830625 2.36328125 12.03125 C2.24339844 13.0109375 2.12351562 13.990625 2 15 C-1 17 -1 17 -4.0625 16.75 C-7 16 -7 16 -9 14 C-9.25 11.5 -9.25 11.5 -9 9 C-8.34 8.34 -7.68 7.68 -7 7 C-7.66 5.68 -8.32 4.36 -9 3 C-6.40257043 -0.46323942 -4.16948329 -0.44356205 0 0 Z " fill="#040404" transform="translate(339,150)"/>
<path d="M0 0 C1.98 0.495 1.98 0.495 4 1 C4 4.63 4 8.26 4 12 C4.66 12 5.32 12 6 12 C6 8.37 6 4.74 6 1 C7.32 1 8.64 1 10 1 C10.08075665 3.29109597 10.13907731 5.58299267 10.1875 7.875 C10.22230469 9.15117187 10.25710937 10.42734375 10.29296875 11.7421875 C10.19628906 12.81726563 10.09960938 13.89234375 10 15 C7 17 7 17 3.9375 16.75 C1 16 1 16 -1 14 C-1.23046875 10.99609375 -1.23046875 10.99609375 -1.1875 7.4375 C-1.17783203 5.67212891 -1.17783203 5.67212891 -1.16796875 3.87109375 C-1 1 -1 1 0 0 Z " fill="#030303" transform="translate(161,150)"/>
<path d="M0 0 C0.625 1.875 0.625 1.875 1 4 C0.34 4.66 -0.32 5.32 -1 6 C-0.34 6.66 0.32 7.32 1 8 C0.625 11.625 0.625 11.625 0 15 C-6.46895075 16.34261242 -6.46895075 16.34261242 -8.9375 14.75 C-10 13 -10 13 -10 10 C-9.34 9.67 -8.68 9.34 -8 9 C-8.66 8.01 -9.32 7.02 -10 6 C-9.75 2.875 -9.75 2.875 -9 0 C-5.93109813 -1.53445094 -3.29905734 -0.54984289 0 0 Z M-7 9 C-6.67 9.66 -6.34 10.32 -6 11 C-5.01 10.67 -4.02 10.34 -3 10 C-4.32 9.67 -5.64 9.34 -7 9 Z " fill="#030303" transform="translate(420,151)"/>
<path d="M0 0 C1.093125 0.226875 2.18625 0.45375 3.3125 0.6875 C3.6425 2.3375 3.9725 3.9875 4.3125 5.6875 C1.3425 5.1925 1.3425 5.1925 -1.6875 4.6875 C-1.6875 6.9975 -1.6875 9.3075 -1.6875 11.6875 C0.2925 11.3575 2.2725 11.0275 4.3125 10.6875 C3.9825 12.3375 3.6525 13.9875 3.3125 15.6875 C-2.04020192 17.02567548 -2.04020192 17.02567548 -4.86328125 15.55078125 C-6.6875 13.6875 -6.6875 13.6875 -7.18359375 11.09375 C-7.16425781 10.1346875 -7.14492187 9.175625 -7.125 8.1875 C-7.12371094 7.2284375 -7.12242187 6.269375 -7.12109375 5.28125 C-6.6875 2.6875 -6.6875 2.6875 -5.390625 0.82421875 C-3.6875 -0.3125 -3.6875 -0.3125 0 0 Z " fill="#040404" transform="translate(135.6875,150.3125)"/>
<path d="M0 0 C1.093125 0.226875 2.18625 0.45375 3.3125 0.6875 C3.6425 2.3375 3.9725 3.9875 4.3125 5.6875 C1.3425 5.1925 1.3425 5.1925 -1.6875 4.6875 C-1.6875 6.9975 -1.6875 9.3075 -1.6875 11.6875 C0.2925 11.3575 2.2725 11.0275 4.3125 10.6875 C3.9825 12.3375 3.6525 13.9875 3.3125 15.6875 C-2.04020192 17.02567548 -2.04020192 17.02567548 -4.86328125 15.55078125 C-6.6875 13.6875 -6.6875 13.6875 -7.18359375 11.09375 C-7.16425781 10.1346875 -7.14492188 9.175625 -7.125 8.1875 C-7.12371094 7.2284375 -7.12242188 6.269375 -7.12109375 5.28125 C-6.6875 2.6875 -6.6875 2.6875 -5.390625 0.82421875 C-3.6875 -0.3125 -3.6875 -0.3125 0 0 Z " fill="#040404" transform="translate(59.6875,150.3125)"/>
<path d="M0 0 C0.33 1.65 0.66 3.3 1 5 C-1.31 4.67 -3.62 4.34 -6 4 C-5.67 6.31 -5.34 8.62 -5 11 C-3.02 10.67 -1.04 10.34 1 10 C0.67 11.65 0.34 13.3 0 15 C-6.625 16.25 -6.625 16.25 -10 14 C-10.3984375 11.03125 -10.3984375 11.03125 -10.375 7.5 C-10.38273437 6.3346875 -10.39046875 5.169375 -10.3984375 3.96875 C-10.26695312 2.9890625 -10.13546875 2.009375 -10 1 C-6.1496895 -1.56687367 -4.41430237 -0.83288724 0 0 Z " fill="#030303" transform="translate(403,151)"/>
<path d="M0 0 C2.5 2.3125 2.5 2.3125 5 5 C5 5.99 5 6.98 5 8 C4.34 8 3.68 8 3 8 C3.66264086 14.06264222 3.66264086 14.06264222 5 20 C3 21 3 21 0.4375 20.1875 C-2.90136706 17.19108084 -2.71499711 14.80964632 -2.95703125 10.47265625 C-3.06606607 4.1981982 -3.06606607 4.1981982 -2 1 C-1.34 0.67 -0.68 0.34 0 0 Z " fill="#030303" transform="translate(268,146)"/>
<path d="M0 0 C2.5 2.3125 2.5 2.3125 5 5 C5 5.99 5 6.98 5 8 C4.34 8 3.68 8 3 8 C3.66264086 14.06264222 3.66264086 14.06264222 5 20 C4.34 20.33 3.68 20.66 3 21 C0.4296875 20 0.4296875 20 -2 18 C-2.7421875 14.75 -2.7421875 14.75 -2.875 11 C-2.93429688 9.7625 -2.99359375 8.525 -3.0546875 7.25 C-3 4 -3 4 -2 1 C-1.34 0.67 -0.68 0.34 0 0 Z " fill="#040404" transform="translate(102,146)"/>
<path d="M0 0 C2.82119614 1.03443859 3.84496198 1.73220706 5.375 4.375 C6.1337039 7.5615564 5.4840941 8.2064111 4 11 C4.25475806 13.52391899 4.25475806 13.52391899 5 16 C5.185625 16.763125 5.37125 17.52625 5.5625 18.3125 C5.706875 18.869375 5.85125 19.42625 6 20 C4 21 4 21 1.4375 20.1875 C-1.90136706 17.19108084 -1.71499711 14.80964632 -1.95703125 10.47265625 C-2.0291235 6.32407518 -2.06834991 3.61961235 0 0 Z " fill="#030303" transform="translate(149,146)"/>
<path d="M0 0 C0 7.26 0 14.52 0 22 C-0.33 22 -0.66 22 -1 22 C-1.495 12.1 -1.495 12.1 -2 2 C-9.41517801 0.90838049 -9.41517801 0.90838049 -16 2 C-17.94422547 12.76267673 -18.96831225 23.17428263 -17 34 C-17.66 34 -18.32 34 -19 34 C-19.92504099 31.22487703 -20.12855278 29.54825868 -20.1328125 26.68359375 C-20.13474609 25.84086914 -20.13667969 24.99814453 -20.13867188 24.12988281 C-20.13416016 23.24139648 -20.12964844 22.35291016 -20.125 21.4375 C-20.12306641 20.53741211 -20.12113281 19.63732422 -20.11914062 18.70996094 C-20.08029066 12.74649206 -19.78892949 6.91697117 -19 1 C-12.43180176 -1.53771296 -6.95953811 -0.78197057 0 0 Z " fill="#7DA3CB" transform="translate(41,73)"/>
<path d="M0 0 C2.0625 0.4375 2.0625 0.4375 4 1 C4.08687496 4.12482562 4.14034568 7.24934246 4.1875 10.375 C4.22520508 11.70917969 4.22520508 11.70917969 4.26367188 13.0703125 C4.27817383 14.34648437 4.27817383 14.34648437 4.29296875 15.6484375 C4.3086792 16.43395996 4.32438965 17.21948242 4.34057617 18.02880859 C4.22818604 18.67930176 4.1157959 19.32979492 4 20 C3.01 20.66 2.02 21.32 1 22 C0.34 21.67 -0.32 21.34 -1 21 C-1.02888146 17.68751813 -1.04675799 14.37506833 -1.0625 11.0625 C-1.07087891 10.11697266 -1.07925781 9.17144531 -1.08789062 8.19726562 C-1.09111328 7.29814453 -1.09433594 6.39902344 -1.09765625 5.47265625 C-1.10289307 4.64000244 -1.10812988 3.80734863 -1.11352539 2.94946289 C-1 1 -1 1 0 0 Z " fill="#0D0D0D" transform="translate(89,145)"/>
<path d="M0 0 C1.98 0.495 1.98 0.495 4 1 C4.08687496 4.12482562 4.14034568 7.24934246 4.1875 10.375 C4.22520508 11.70917969 4.22520508 11.70917969 4.26367188 13.0703125 C4.27817383 14.34648437 4.27817383 14.34648437 4.29296875 15.6484375 C4.3086792 16.43395996 4.32438965 17.21948242 4.34057617 18.02880859 C4.22818604 18.67930176 4.1157959 19.32979492 4 20 C3.01 20.66 2.02 21.32 1 22 C-1 20 -1 20 -1.1953125 16.8125 C-1.17210937 15.554375 -1.14890625 14.29625 -1.125 13 C-1.10695313 11.741875 -1.08890625 10.48375 -1.0703125 9.1875 C-1.03550781 7.6096875 -1.03550781 7.6096875 -1 6 C-1 5.34 -1 4.68 -1 4 C-0.68521554 2.66216607 -0.35412344 1.32796291 0 0 Z " fill="#010101" transform="translate(383,145)"/>
<path d="M0 0 C0 1.32 0 2.64 0 4 C-0.99 4 -1.98 4 -3 4 C-2.96519531 4.77085937 -2.93039063 5.54171875 -2.89453125 6.3359375 C-2.86746094 7.33882812 -2.84039062 8.34171875 -2.8125 9.375 C-2.77769531 10.37273437 -2.74289063 11.37046875 -2.70703125 12.3984375 C-2.80371094 13.25695312 -2.90039062 14.11546875 -3 15 C-3.99 15.66 -4.98 16.32 -6 17 C-8.69101234 14.30898766 -8.29887549 12.80924054 -8.3125 9.0625 C-8.32925781 8.00160156 -8.34601563 6.94070312 -8.36328125 5.84765625 C-8 3 -8 3 -6.6484375 1.1328125 C-4.38627648 -0.42175313 -2.67977034 -0.21727868 0 0 Z " fill="#030303" transform="translate(185,150)"/>
<path d="M0 0 C1.1446875 0.3403125 1.1446875 0.3403125 2.3125 0.6875 C2.3125 1.6775 2.3125 2.6675 2.3125 3.6875 C1.3225 3.6875 0.3325 3.6875 -0.6875 3.6875 C-0.6875 7.6475 -0.6875 11.6075 -0.6875 15.6875 C-1.6775 16.0175 -2.6675 16.3475 -3.6875 16.6875 C-6.37851234 13.99648766 -5.98637549 12.49674054 -6 8.75 C-6.01675781 7.68910156 -6.03351563 6.62820312 -6.05078125 5.53515625 C-5.6875 2.6875 -5.6875 2.6875 -4.3359375 0.7890625 C-2.6875 -0.3125 -2.6875 -0.3125 0 0 Z " fill="#020202" transform="translate(256.6875,150.3125)"/>
<path d="M0 0 C0.99 0 1.98 0 3 0 C3.02888146 3.31248187 3.04675799 6.62493167 3.0625 9.9375 C3.07087891 10.88302734 3.07925781 11.82855469 3.08789062 12.80273438 C3.09272461 14.15141602 3.09272461 14.15141602 3.09765625 15.52734375 C3.10551147 16.77632446 3.10551147 16.77632446 3.11352539 18.05053711 C3 20 3 20 2 21 C-5.59880847 21.82772735 -11.34291843 20.68194141 -18 17 C-14.265625 15.890625 -14.265625 15.890625 -11.875 16.875 C-7.64187866 18.53143878 -3.5247146 18.63802283 1 19 C0.505 9.595 0.505 9.595 0 0 Z " fill="#819BBC" transform="translate(47,99)"/>
<path d="M0 0 C0.763125 0.20625 1.52625 0.4125 2.3125 0.625 C2.3125 1.615 2.3125 2.605 2.3125 3.625 C1.3225 3.625 0.3325 3.625 -0.6875 3.625 C-0.73648438 4.47964844 -0.78546875 5.33429688 -0.8359375 6.21484375 C-0.91070312 7.31957031 -0.98546875 8.42429688 -1.0625 9.5625 C-1.13210937 10.66464844 -1.20171875 11.76679688 -1.2734375 12.90234375 C-1.41007812 13.80082031 -1.54671875 14.69929687 -1.6875 15.625 C-2.3475 15.955 -3.0075 16.285 -3.6875 16.625 C-4.3475 16.295 -5.0075 15.965 -5.6875 15.625 C-5.76825665 13.33390403 -5.82657731 11.04200733 -5.875 8.75 C-5.90980469 7.47382813 -5.94460937 6.19765625 -5.98046875 4.8828125 C-5.88378906 3.80773437 -5.78710938 2.73265625 -5.6875 1.625 C-2.6875 -0.375 -2.6875 -0.375 0 0 Z " fill="#030303" transform="translate(45.6875,150.375)"/>
<path d="M0 0 C0.763125 0.20625 1.52625 0.4125 2.3125 0.625 C1.9825 1.615 1.6525 2.605 1.3125 3.625 C0.6525 3.625 -0.0075 3.625 -0.6875 3.625 C-0.73648437 4.47964844 -0.78546875 5.33429688 -0.8359375 6.21484375 C-0.91070312 7.31957031 -0.98546875 8.42429688 -1.0625 9.5625 C-1.13210938 10.66464844 -1.20171875 11.76679688 -1.2734375 12.90234375 C-1.41007812 13.80082031 -1.54671875 14.69929687 -1.6875 15.625 C-2.3475 15.955 -3.0075 16.285 -3.6875 16.625 C-4.3475 16.295 -5.0075 15.965 -5.6875 15.625 C-5.76825665 13.33390403 -5.82657731 11.04200733 -5.875 8.75 C-5.90980469 7.47382813 -5.94460938 6.19765625 -5.98046875 4.8828125 C-5.88378906 3.80773437 -5.78710938 2.73265625 -5.6875 1.625 C-2.6875 -0.375 -2.6875 -0.375 0 0 Z " fill="#020202" transform="translate(322.6875,150.375)"/>
<path d="M0 0 C1.73956658 1.73956658 1.37190386 4.1936622 1.5625 6.5625 C1.64628906 7.57441406 1.73007813 8.58632812 1.81640625 9.62890625 C1.87699219 10.41136719 1.93757813 11.19382813 2 12 C1.01 12.33 0.02 12.66 -1 13 C-3.39763185 10.60236815 -3.34280586 9.66726502 -3.625 6.375 C-3.69976562 5.55773437 -3.77453125 4.74046875 -3.8515625 3.8984375 C-3.92503906 2.95871094 -3.92503906 2.95871094 -4 2 C-4.99 2.33 -5.98 2.66 -7 3 C-7.33 3.99 -7.66 4.98 -8 6 C-8 3.69 -8 1.38 -8 -1 C-4.36442231 -2.21185923 -3.36216382 -1.59260392 0 0 Z " fill="#080808" transform="translate(80,154)"/>
<path d="M0 0 C0.73080266 1.97746603 1.39421747 3.98072489 2 6 C1.67 6.66 1.34 7.32 1 8 C0.01 8 -0.98 8 -2 8 C-2.66 9.65 -3.32 11.3 -4 13 C-4.66 12.67 -5.32 12.34 -6 12 C-6.4140625 9.93359375 -6.4140625 9.93359375 -6.625 7.4375 C-6.69976562 6.61121094 -6.77453125 5.78492188 -6.8515625 4.93359375 C-6.90054688 4.29550781 -6.94953125 3.65742188 -7 3 C-2.25 0 -2.25 0 0 0 Z " fill="#090909" transform="translate(119,151)"/>
<path d="M0 0 C2.91132065 4.36698098 3.37889633 6.69545144 3 12 C2.01 12.66 1.02 13.32 0 14 C-1 13 -1 13 -1.1328125 10.3125 C-1.13023437 9.219375 -1.12765625 8.12625 -1.125 7 C-1.12757813 5.906875 -1.13015625 4.81375 -1.1328125 3.6875 C-1 1 -1 1 0 0 Z " fill="#080808" transform="translate(384,153)"/>
<path d="M0 0 C2.91517292 1.07401108 4.77810176 1.77810176 7 4 C7.1953125 6.3828125 7.1953125 6.3828125 7.125 9.125 C7.10695313 10.03507813 7.08890625 10.94515625 7.0703125 11.8828125 C7.04710937 12.58148438 7.02390625 13.28015625 7 14 C6.01 13.67 5.02 13.34 4 13 C3.67 9.37 3.34 5.74 3 2 C2.01 1.67 1.02 1.34 0 1 C0 0.67 0 0.34 0 0 Z " fill="#0A0A0A" transform="translate(369,152)"/>
<path d="M0 0 C0.33 0 0.66 0 1 0 C1.08078641 2.12438339 1.13909141 4.2496323 1.1875 6.375 C1.22230469 7.55835938 1.25710937 8.74171875 1.29296875 9.9609375 C1.19628906 10.96382812 1.09960938 11.96671875 1 13 C0.01 13.66 -0.98 14.32 -2 15 C-2.66 14.67 -3.32 14.34 -4 14 C-4 13.01 -4 12.02 -4 11 C-3.34 10.67 -2.68 10.34 -2 10 C-1.5709742 7.90658482 -1.5709742 7.90658482 -1.4375 5.5 C-1.09605489 1.09605489 -1.09605489 1.09605489 0 0 Z " fill="#030303" transform="translate(92,152)"/>
<path d="M0 0 C0.33 0 0.66 0 1 0 C1.06058594 1.07378906 1.12117188 2.14757812 1.18359375 3.25390625 C1.26807651 4.69011315 1.35272054 6.12631058 1.4375 7.5625 C1.47681641 8.26697266 1.51613281 8.97144531 1.55664062 9.69726562 C1.82518279 14.1798541 2.30616197 18.56293497 3 23 C2.34 23 1.68 23 1 23 C0.03911617 20.11734851 -0.11670941 18.32337729 -0.09765625 15.33203125 C-0.09443359 14.43935547 -0.09121094 13.54667969 -0.08789062 12.62695312 C-0.07951172 11.69818359 -0.07113281 10.76941406 -0.0625 9.8125 C-0.05798828 8.87212891 -0.05347656 7.93175781 -0.04882812 6.96289062 C-0.03704626 4.64186288 -0.02059558 2.32096356 0 0 Z " fill="#819FB9" transform="translate(21,84)"/>
<path d="M0 0 C0.99 0.33 1.98 0.66 3 1 C4.125 5.75 4.125 5.75 3 8 C-0.0625 8.625 -0.0625 8.625 -3 9 C-2.505 8.62875 -2.01 8.2575 -1.5 7.875 C0.59755514 5.25305607 0.21743835 3.26157528 0 0 Z " fill="#080808" transform="translate(197,150)"/>
<path d="M0 0 C1.4540625 0.0309375 1.4540625 0.0309375 2.9375 0.0625 C3.2675 0.7225 3.5975 1.3825 3.9375 2.0625 C1.9575 2.3925 -0.0225 2.7225 -2.0625 3.0625 C-2.3925 6.3625 -2.7225 9.6625 -3.0625 13.0625 C-3.3925 13.0625 -3.7225 13.0625 -4.0625 13.0625 C-4.08936553 11.08340602 -4.10883375 9.10421029 -4.125 7.125 C-4.13660156 6.02285156 -4.14820312 4.92070313 -4.16015625 3.78515625 C-4.02168594 -0.07539595 -3.9087853 0.07977113 0 0 Z " fill="#7E94B5" transform="translate(25.0625,70.9375)"/>
<path d="M0 0 C2.0625 0.4375 2.0625 0.4375 4 1 C3.67 2.98 3.34 4.96 3 7 C2.01 6.67 1.02 6.34 0 6 C-0.38218767 4.34385343 -0.71395102 2.67542976 -1 1 C-0.67 0.67 -0.34 0.34 0 0 Z " fill="#030303" transform="translate(89,145)"/>
<path d="M0 0 C1.98 0.495 1.98 0.495 4 1 C3.34 2.32 2.68 3.64 2 5 C1.01 4.67 0.02 4.34 -1 4 C-0.67 2.68 -0.34 1.36 0 0 Z " fill="#010101" transform="translate(279,162)"/>
<path d="M0 0 C1.98 0.495 1.98 0.495 4 1 C3.34 2.32 2.68 3.64 2 5 C1.01 4.34 0.02 3.68 -1 3 C-0.67 2.01 -0.34 1.02 0 0 Z " fill="#010101" transform="translate(208,162)"/>
<path d="M0 0 C0.33 0.66 0.66 1.32 1 2 C0.67 2.99 0.34 3.98 0 5 C-0.66 5 -1.32 5 -2 5 C-2.33 5.99 -2.66 6.98 -3 8 C-3 5.69 -3 3.38 -3 1 C-2.01 0.67 -1.02 0.34 0 0 Z " fill="#0C0C0C" transform="translate(75,152)"/>
</svg>
